<svg id="svg" xmlns="http://www.w3.org/2000/svg" xmlns:xlink="http://www.w3.org/1999/xlink" width="400" height="400" viewBox="0, 0, 400,400"><g id="svgg"><path id="path0" d="M132.143 55.523 C 128.987 55.836,115.831 57.685,113.929 58.084 C 113.143 58.248,111.214 58.642,109.643 58.958 C 108.071 59.274,106.625 59.582,106.429 59.643 C 106.232 59.704,104.786 60.012,103.214 60.327 C 101.643 60.642,99.996 61.186,99.555 61.534 C 99.114 61.882,98.230 61.967,97.591 61.722 C 96.951 61.476,96.429 61.596,96.429 61.987 C 96.429 62.378,95.223 62.924,93.750 63.199 C 90.713 63.767,82.866 66.352,81.786 67.139 C 81.393 67.426,80.240 67.858,79.223 68.100 C 75.150 69.070,70.923 74.483,71.326 78.214 C 71.591 80.670,73.656 85.714,74.396 85.714 C 74.784 85.714,75.584 86.196,76.173 86.786 C 77.821 88.433,83.191 88.435,86.796 86.789 C 89.652 85.486,93.001 84.125,94.107 83.819 C 94.598 83.683,95.402 83.459,95.893 83.322 C 96.384 83.185,97.268 82.881,97.857 82.647 C 100.476 81.606,108.546 79.380,111.111 78.991 C 114.064 78.544,116.077 78.179,119.643 77.446 C 127.076 75.918,132.593 75.481,145.000 75.439 C 158.599 75.392,162.963 75.847,174.290 78.491 C 182.924 80.506,192.143 83.515,192.143 84.317 C 192.143 84.693,192.416 84.920,192.750 84.821 C 193.673 84.550,201.429 88.073,201.429 88.764 C 201.429 89.097,201.750 89.171,202.143 88.929 C 202.536 88.686,202.857 88.796,202.857 89.174 C 202.857 89.551,203.741 90.208,204.821 90.634 C 207.406 91.652,209.178 92.793,212.475 95.564 C 213.078 96.070,213.571 96.312,213.571 96.100 C 213.571 95.732,214.094 96.155,218.165 99.821 C 219.146 100.705,220.229 101.429,220.571 101.429 C 221.420 101.429,234.454 114.356,234.031 114.779 C 233.692 115.118,230.667 113.729,230.000 112.929 C 229.597 112.445,221.658 108.485,217.857 106.873 C 208.934 103.087,205.000 101.529,205.000 101.781 C 205.000 101.940,203.872 101.599,202.493 101.022 C 194.200 97.558,174.154 95.311,164.286 96.740 C 142.468 99.900,131.426 105.608,119.254 120.019 C 117.077 122.597,114.868 125.737,114.346 126.996 C 113.825 128.256,113.116 129.286,112.770 129.286 C 112.425 129.286,112.208 129.527,112.287 129.821 C 112.367 130.116,111.768 131.643,110.957 133.214 C 106.501 141.848,104.990 149.825,105.003 164.643 C 105.014 176.370,105.326 179.506,107.081 185.536 C 107.453 186.813,107.633 187.857,107.482 187.857 C 107.330 187.857,107.660 189.143,108.214 190.714 C 108.769 192.286,109.068 193.571,108.879 193.571 C 108.689 193.571,109.033 194.536,109.643 195.714 C 110.252 196.893,110.610 197.857,110.438 197.857 C 110.267 197.857,111.257 200.509,112.640 203.750 C 114.023 206.991,116.132 212.536,117.327 216.071 C 118.522 219.607,119.913 223.464,120.418 224.643 C 121.711 227.656,122.401 229.526,122.526 230.357 C 122.688 231.428,126.273 240.028,129.439 246.939 C 130.197 248.595,130.755 250.042,130.679 250.154 C 130.603 250.266,131.544 252.059,132.770 254.139 C 133.997 256.218,135.000 258.388,135.000 258.960 C 135.000 259.532,135.284 260.000,135.631 260.000 C 135.978 260.000,136.460 260.563,136.701 261.250 C 136.943 261.938,138.253 264.429,139.613 266.786 C 140.973 269.143,142.322 271.554,142.610 272.143 C 142.898 272.732,143.554 273.639,144.067 274.158 C 144.580 274.677,145.000 275.522,145.000 276.035 C 145.000 276.548,145.526 277.404,146.169 277.938 C 146.811 278.471,148.136 280.173,149.112 281.719 C 150.088 283.265,151.491 285.179,152.229 285.971 C 152.967 286.764,153.571 287.650,153.571 287.941 C 153.571 288.232,154.134 289.027,154.821 289.709 C 155.509 290.391,156.807 291.941,157.706 293.153 C 159.888 296.097,172.799 309.286,173.498 309.286 C 173.801 309.286,174.862 310.170,175.856 311.250 C 178.202 313.801,179.858 315.131,184.641 318.307 C 186.803 319.742,188.571 321.192,188.571 321.530 C 188.571 321.867,188.887 322.143,189.272 322.143 C 189.657 322.143,191.746 323.278,193.915 324.665 C 196.083 326.052,197.857 326.960,197.857 326.683 C 197.857 326.406,198.687 326.959,199.700 327.911 C 200.714 328.864,201.598 329.515,201.665 329.359 C 201.889 328.834,205.000 330.090,205.000 330.706 C 205.000 331.041,206.045 331.536,207.321 331.806 C 208.598 332.076,210.607 332.874,211.786 333.579 C 213.598 334.663,220.921 337.293,229.643 339.994 C 232.594 340.907,247.139 343.364,253.214 343.975 C 268.320 345.494,294.494 343.619,308.571 340.009 C 310.339 339.556,312.429 339.074,313.214 338.938 C 314.000 338.802,314.643 338.639,314.643 338.576 C 314.643 338.514,315.125 338.362,315.714 338.239 C 327.046 335.879,336.256 331.757,338.180 328.184 C 342.667 319.853,333.866 310.283,325.357 314.242 C 317.215 318.030,296.059 322.937,282.857 324.099 C 270.699 325.168,255.595 324.518,245.714 322.500 C 244.732 322.299,242.804 321.977,241.429 321.785 C 229.814 320.156,206.494 310.285,199.696 304.121 C 198.939 303.435,197.733 302.687,197.017 302.460 C 196.300 302.233,195.714 301.770,195.714 301.433 C 195.714 301.095,195.253 300.715,194.688 300.588 C 192.094 300.004,172.857 281.301,172.857 279.363 C 172.857 278.967,172.356 278.362,171.744 278.019 C 170.539 277.345,166.316 271.303,166.748 270.871 C 166.983 270.636,172.675 274.077,173.571 274.996 C 174.247 275.688,181.786 280.172,182.500 280.306 C 182.893 280.380,184.500 281.103,186.071 281.914 C 187.643 282.725,189.704 283.628,190.652 283.922 C 191.600 284.216,193.529 284.957,194.938 285.568 C 196.347 286.180,197.821 286.753,198.214 286.840 C 198.607 286.928,200.494 287.540,202.408 288.200 C 204.321 288.861,206.411 289.517,207.051 289.659 C 207.691 289.801,211.268 290.605,215.000 291.446 C 222.387 293.111,237.036 293.848,243.214 292.865 C 245.179 292.553,248.382 292.083,250.333 291.822 C 252.285 291.560,254.260 291.032,254.723 290.648 C 255.185 290.264,255.839 290.021,256.175 290.108 C 256.511 290.194,258.030 289.724,259.552 289.061 C 261.073 288.399,262.418 287.857,262.541 287.857 C 262.664 287.857,263.508 287.574,264.418 287.228 C 265.327 286.883,266.279 286.642,266.532 286.693 C 266.786 286.744,267.589 286.261,268.318 285.620 C 269.047 284.979,270.366 284.234,271.250 283.965 C 272.134 283.696,272.857 283.184,272.857 282.827 C 272.857 282.471,273.895 281.643,275.164 280.986 C 278.056 279.491,287.339 270.085,289.797 266.160 C 290.812 264.540,291.996 262.978,292.428 262.690 C 292.861 262.401,292.969 262.160,292.670 262.154 C 292.370 262.148,292.876 260.938,293.793 259.464 C 295.691 256.417,296.525 254.555,296.912 252.500 C 297.060 251.714,297.782 249.462,298.515 247.496 C 301.016 240.793,302.487 222.148,301.135 214.286 C 300.966 213.304,300.438 210.089,299.962 207.143 C 299.486 204.197,298.670 200.576,298.148 199.097 C 297.626 197.619,297.146 196.172,297.080 195.883 C 296.760 194.469,296.263 193.099,295.662 191.974 C 295.298 191.292,295.000 190.215,295.000 189.582 C 295.000 188.948,294.529 187.417,293.954 186.179 C 292.858 183.822,288.970 171.786,289.304 171.786 C 289.410 171.786,288.759 170.339,287.857 168.571 C 286.955 166.804,286.269 165.275,286.331 165.175 C 286.394 165.075,285.959 163.830,285.365 162.409 C 284.772 160.988,284.286 159.706,284.286 159.560 C 284.286 157.632,274.784 138.528,269.156 129.140 C 266.870 125.327,265.000 121.906,265.000 121.538 C 265.000 121.169,264.472 120.664,263.826 120.417 C 263.181 120.169,262.864 119.755,263.122 119.497 C 263.380 119.239,262.723 118.121,261.662 117.014 C 260.601 115.906,260.034 114.995,260.402 114.989 C 260.770 114.983,260.720 114.742,260.291 114.453 C 259.862 114.165,258.381 112.438,257.001 110.615 C 253.642 106.182,252.785 105.169,250.893 103.393 C 250.009 102.564,249.286 101.651,249.286 101.365 C 249.286 100.138,232.678 84.437,229.380 82.546 C 228.739 82.179,227.732 81.398,227.143 80.810 C 225.741 79.413,217.701 74.323,213.393 72.106 C 211.527 71.145,210.000 70.118,210.000 69.823 C 210.000 69.527,209.626 69.286,209.168 69.286 C 208.711 69.286,205.980 68.167,203.100 66.800 C 200.220 65.433,196.978 64.101,195.896 63.840 C 194.814 63.579,192.643 62.795,191.071 62.097 C 188.018 60.741,179.379 58.649,168.929 56.736 C 162.926 55.637,138.968 54.847,132.143 55.523 M52.763 98.766 C 51.336 99.465,49.248 101.395,48.122 103.054 C 46.996 104.714,45.806 106.268,45.477 106.508 C 45.147 106.749,44.902 107.149,44.931 107.398 C 44.961 107.647,44.154 109.700,43.138 111.961 C 41.127 116.436,38.648 124.602,38.094 128.571 C 37.902 129.946,37.600 131.875,37.421 132.857 C 35.065 145.822,37.905 153.195,45.517 153.878 C 52.829 154.535,55.892 150.832,56.703 140.357 C 57.255 133.230,58.010 128.561,58.677 128.149 C 59.025 127.934,59.130 127.469,58.911 127.114 C 58.692 126.760,59.017 125.497,59.632 124.307 C 60.247 123.117,60.575 122.143,60.361 122.143 C 59.702 122.143,62.682 116.746,64.600 114.467 C 65.596 113.283,66.505 111.713,66.619 110.979 C 66.734 110.244,66.999 109.321,67.210 108.929 C 67.655 108.098,67.578 107.331,66.850 105.357 C 64.389 98.683,58.528 95.941,52.763 98.766 M180.357 116.779 C 187.561 117.501,189.809 117.911,191.151 118.751 C 191.587 119.024,193.034 119.388,194.365 119.560 C 195.696 119.732,197.750 120.251,198.929 120.714 C 200.107 121.177,201.651 121.672,202.360 121.815 C 203.068 121.959,205.721 123.055,208.254 124.252 C 210.788 125.449,213.036 126.429,213.251 126.429 C 213.465 126.429,215.312 127.476,217.356 128.757 C 219.399 130.037,221.950 131.535,223.024 132.085 C 224.097 132.635,225.544 133.597,226.238 134.221 C 226.932 134.846,228.940 136.321,230.700 137.500 C 236.435 141.340,242.353 146.386,247.770 152.053 C 252.905 157.425,262.898 169.483,262.525 169.856 C 262.361 170.020,263.026 171.003,264.002 172.041 C 264.977 173.079,266.483 175.455,267.348 177.321 C 268.213 179.188,269.182 180.714,269.502 180.714 C 269.822 180.714,269.915 180.988,269.709 181.322 C 269.502 181.656,270.126 183.004,271.095 184.318 C 272.064 185.631,272.857 187.137,272.857 187.664 C 272.857 188.191,273.300 189.334,273.841 190.204 C 274.383 191.074,275.560 194.036,276.457 196.786 C 277.354 199.536,278.245 202.268,278.437 202.857 C 278.848 204.114,279.010 204.738,279.552 207.143 C 279.774 208.125,280.260 210.214,280.632 211.786 C 281.722 216.393,282.141 230.034,281.301 233.571 C 280.881 235.339,280.466 237.268,280.380 237.857 C 279.093 246.663,269.216 263.454,265.266 263.552 C 264.823 263.563,264.069 264.043,263.590 264.620 C 261.880 266.681,252.190 271.313,250.536 270.861 C 250.241 270.780,250.000 270.967,250.000 271.276 C 250.000 271.584,249.438 271.873,248.750 271.918 C 248.063 271.962,246.214 272.259,244.643 272.578 C 234.325 274.672,203.810 270.649,202.262 266.991 C 202.131 266.682,201.573 266.429,201.022 266.429 C 199.798 266.429,187.594 260.569,187.262 259.821 C 187.131 259.527,186.721 259.286,186.352 259.286 C 184.929 259.286,171.549 249.838,167.420 245.917 C 166.089 244.653,165.000 243.775,165.000 243.965 C 165.000 244.522,154.102 233.332,152.143 230.764 C 151.161 229.476,149.714 227.670,148.929 226.749 C 146.111 223.447,143.929 220.458,143.929 219.900 C 143.929 219.588,143.300 218.598,142.533 217.702 C 141.765 216.805,141.140 215.911,141.144 215.714 C 141.148 215.518,140.582 214.746,139.886 213.999 C 139.190 213.252,138.759 212.417,138.929 212.143 C 139.098 211.869,138.608 210.971,137.840 210.146 C 137.072 209.322,135.683 206.943,134.752 204.860 C 132.072 198.862,127.847 188.224,127.549 186.725 C 127.399 185.973,127.089 184.554,126.860 183.571 C 123.025 167.138,124.016 152.441,129.789 140.151 C 135.734 127.494,150.132 117.904,164.990 116.704 C 167.537 116.499,169.710 116.243,169.817 116.136 C 170.027 115.925,174.657 116.207,180.357 116.779 M180.714 150.806 C 179.339 151.169,177.893 151.545,177.500 151.642 C 175.416 152.158,172.143 153.826,172.143 154.372 C 172.143 154.718,171.741 155.009,171.250 155.021 C 170.056 155.049,166.431 158.406,164.295 161.460 C 163.346 162.818,162.376 164.089,162.141 164.286 C 161.388 164.913,159.413 170.936,158.575 175.158 C 157.550 180.325,158.718 191.957,160.747 196.786 C 164.197 204.997,168.217 211.964,172.221 216.673 C 175.653 220.709,183.071 227.857,183.827 227.857 C 184.088 227.857,186.146 229.096,188.401 230.609 C 197.881 236.974,206.047 239.659,215.714 239.589 C 223.436 239.533,227.139 239.156,227.141 238.425 C 227.142 238.148,228.256 237.713,229.617 237.458 C 230.978 237.202,232.461 236.548,232.913 236.005 C 233.364 235.461,233.967 235.160,234.252 235.337 C 235.143 235.887,244.382 226.115,244.700 224.286 C 244.735 224.089,245.137 223.045,245.596 221.964 C 246.054 220.884,246.768 219.128,247.183 218.062 C 248.002 215.959,248.281 201.264,247.525 200.041 C 247.270 199.628,246.901 198.567,246.703 197.681 C 245.301 191.384,240.653 181.981,235.168 174.346 C 233.621 172.194,233.615 172.188,226.564 165.787 C 220.247 160.053,220.360 160.130,211.364 155.480 C 201.871 150.575,189.018 148.615,180.714 150.806 M330.166 174.763 C 322.204 177.581,321.320 184.052,327.619 193.422 C 329.911 196.831,331.794 199.786,331.804 199.989 C 331.814 200.191,332.363 201.164,333.024 202.150 C 335.575 205.958,341.216 221.323,340.822 223.393 C 340.728 223.884,340.987 224.286,341.397 224.286 C 341.807 224.286,342.082 224.527,342.007 224.821 C 341.932 225.116,342.076 226.321,342.328 227.500 C 344.171 236.137,344.419 250.838,342.899 261.258 C 341.498 270.854,344.090 275.601,350.859 275.837 C 358.337 276.098,360.967 273.219,362.717 262.857 C 363.281 259.516,363.289 231.828,362.726 228.214 C 361.634 221.194,358.704 211.046,356.171 205.508 C 355.134 203.241,354.286 201.202,354.286 200.977 C 354.286 194.810,337.638 172.880,333.524 173.628 C 333.354 173.659,331.843 174.170,330.166 174.763 M73.967 260.835 C 59.802 268.303,68.685 289.444,83.842 284.334 C 89.597 282.394,93.308 276.540,92.393 270.845 C 92.097 269.005,91.840 267.300,91.821 267.055 C 91.398 261.667,79.953 257.679,73.967 260.835 " stroke="none" fill="#946cfc" fill-rule="evenodd"></path></g></svg>